<svg width="224" height="205" viewBox="0 0 224 205" fill="none" xmlns="http://www.w3.org/2000/svg">
<path d="M36.3772 181.415C32.1832 168.729 34.8804 154.732 43.3762 144.477C58.4666 126.246 87.7841 93.5002 106.987 89.2123C108.781 88.8163 110.467 88.6524 112.072 88.789C130.156 90.2365 162.453 123.857 179.648 143.234C190.894 155.906 192.715 174.601 183.895 189.117C174.968 203.783 155.347 213.752 112.422 193.323C112.395 193.309 50.4696 224.021 36.3772 181.415Z" fill="#38B6FF" fill-opacity="0.15"/>
<path d="M37.5782 133.666C51.3966 131.199 59.7876 113.052 56.3199 93.1322C52.8522 73.2125 38.839 59.0641 25.0206 61.5307C11.2021 63.9973 2.81111 82.145 6.2788 102.065C9.74648 121.984 23.7597 136.133 37.5782 133.666Z" fill="#38B6FF" fill-opacity="0.15"/>
<path d="M216.956 102.061C220.424 82.1417 212.033 63.994 198.214 61.5273C184.396 59.0607 170.382 73.2092 166.915 93.1288C163.447 113.048 171.838 131.196 185.656 133.663C199.475 136.129 213.488 121.981 216.956 102.061Z" fill="#38B6FF" fill-opacity="0.15"/>
<path d="M79.0455 78.3287C94.0455 78.3287 106.205 60.7942 106.205 39.1644C106.205 17.5345 94.0455 0 79.0455 0C64.0455 0 51.8856 17.5345 51.8856 39.1644C51.8856 60.7942 64.0455 78.3287 79.0455 78.3287Z" fill="#38B6FF" fill-opacity="0.15"/>
<path d="M145.003 78.3287C160.003 78.3287 172.163 60.7942 172.163 39.1644C172.163 17.5345 160.003 0 145.003 0C130.003 0 117.843 17.5345 117.843 39.1644C117.843 60.7942 130.003 78.3287 145.003 78.3287Z" fill="#38B6FF" fill-opacity="0.15"/>
</svg>
