<svg width="280" height="390" viewBox="0 0 280 390" fill="none" xmlns="http://www.w3.org/2000/svg">
<path d="M235.257 29.8686C234.359 32.661 232.054 34.7724 229.197 35.4562C224.121 36.6735 214.606 38.5672 210.605 36.7811C210.232 36.6135 209.909 36.4193 209.639 36.1827C206.585 33.5334 205.168 23.3287 204.606 17.6352C204.238 13.9114 206.344 10.3736 209.813 8.98123C213.321 7.57666 218.135 8.41624 223.173 17.7014C223.176 17.7074 238.272 20.4893 235.257 29.8686Z" fill="white" fill-opacity="0.15"/>
<path d="M228.797 38.1242C225.996 36.7294 222.128 38.8196 220.156 42.7927C218.185 46.7658 218.857 51.1174 221.658 52.5122C224.459 53.9069 228.328 51.8167 230.299 47.8436C232.271 43.8705 231.598 39.5189 228.797 38.1242Z" fill="white" fill-opacity="0.15"/>
<path d="M192.565 19.9917C189.351 23.0485 188.495 27.3639 190.652 29.6305C192.809 31.897 197.163 31.2564 200.376 28.1996C203.59 25.1428 204.446 20.8274 202.289 18.5608C200.132 16.2943 195.779 16.9349 192.565 19.9917Z" fill="white" fill-opacity="0.15"/>
<path d="M214.157 42.4244C211.467 40.4374 207.003 41.9208 204.188 45.7377C201.372 49.5546 201.271 54.2597 203.962 56.2467C206.653 58.2337 211.116 56.7503 213.932 52.9334C216.747 49.1164 216.848 44.4114 214.157 42.4244Z" fill="white" fill-opacity="0.15"/>
<path d="M202.35 33.7102C199.659 31.7232 195.195 33.2066 192.38 37.0235C189.565 40.8404 189.464 45.5454 192.155 47.5324C194.845 49.5195 199.309 48.036 202.124 44.2191C204.939 40.4022 205.04 35.6972 202.35 33.7102Z" fill="white" fill-opacity="0.15"/>
<path d="M269.68 111.212C268.782 114.004 266.478 116.116 263.621 116.799C258.544 118.017 249.029 119.91 245.029 118.124C244.656 117.957 244.332 117.763 244.062 117.526C241.008 114.877 239.592 104.672 239.03 98.9784C238.662 95.2547 240.767 91.7169 244.236 90.3245C247.745 88.9199 252.559 89.7595 257.597 99.0447C257.6 99.0507 272.696 101.833 269.68 111.212Z" fill="white" fill-opacity="0.15"/>
<path d="M263.221 119.467C260.42 118.073 256.551 120.163 254.58 124.136C252.608 128.109 253.281 132.461 256.082 133.855C258.883 135.25 262.751 133.16 264.723 129.187C266.694 125.214 266.022 120.862 263.221 119.467Z" fill="white" fill-opacity="0.15"/>
<path d="M226.988 101.335C223.775 104.392 222.918 108.707 225.075 110.973C227.232 113.24 231.586 112.599 234.8 109.543C238.013 106.486 238.87 102.17 236.713 99.9039C234.556 97.6373 230.202 98.2779 226.988 101.335Z" fill="white" fill-opacity="0.15"/>
<path d="M248.581 123.768C245.89 121.781 241.426 123.264 238.611 127.081C235.796 130.898 235.695 135.603 238.386 137.59C241.076 139.577 245.54 138.094 248.355 134.277C251.171 130.46 251.272 125.755 248.581 123.768Z" fill="white" fill-opacity="0.15"/>
<path d="M236.773 115.054C234.082 113.067 229.619 114.55 226.803 118.367C223.988 122.184 223.887 126.889 226.578 128.876C229.269 130.863 233.732 129.379 236.548 125.563C239.363 121.746 239.464 117.041 236.773 115.054Z" fill="white" fill-opacity="0.15"/>
<path d="M175.876 110.329C174.977 113.121 172.673 115.233 169.816 115.917C164.739 117.134 155.224 119.028 151.224 117.242C150.851 117.074 150.527 116.88 150.257 116.643C147.204 113.994 145.787 103.789 145.225 98.0956C144.857 94.3719 146.962 90.834 150.432 89.4417C153.94 88.0371 158.754 88.8767 163.792 98.1619C163.795 98.1679 178.891 100.95 175.876 110.329Z" fill="white" fill-opacity="0.15"/>
<path d="M169.416 118.585C166.615 117.19 162.746 119.28 160.775 123.253C158.803 127.226 159.476 131.578 162.277 132.973C165.078 134.367 168.947 132.277 170.918 128.304C172.89 124.331 172.217 119.979 169.416 118.585Z" fill="white" fill-opacity="0.15"/>
<path d="M133.184 100.452C129.97 103.509 129.113 107.824 131.27 110.091C133.427 112.357 137.781 111.717 140.995 108.66C144.208 105.603 145.065 101.288 142.908 99.021C140.751 96.7545 136.397 97.3951 133.184 100.452Z" fill="white" fill-opacity="0.15"/>
<path d="M154.776 122.885C152.085 120.898 147.622 122.381 144.806 126.198C141.991 130.015 141.89 134.72 144.581 136.707C147.272 138.694 151.735 137.211 154.55 133.394C157.366 129.577 157.467 124.872 154.776 122.885Z" fill="white" fill-opacity="0.15"/>
<path d="M142.968 114.171C140.278 112.184 135.814 113.667 132.999 117.484C130.183 121.301 130.082 126.006 132.773 127.993C135.464 129.98 139.928 128.497 142.743 124.68C145.558 120.863 145.659 116.158 142.968 114.171Z" fill="white" fill-opacity="0.15"/>
<path d="M210.299 191.672C209.401 194.465 207.097 196.576 204.24 197.26C199.163 198.477 189.648 200.371 185.647 198.585C185.274 198.417 184.951 198.223 184.681 197.986C181.627 195.337 180.21 185.132 179.648 179.439C179.28 175.715 181.386 172.177 184.855 170.785C188.363 169.38 193.177 170.22 198.215 179.505C198.218 179.511 213.315 182.293 210.299 191.672Z" fill="white" fill-opacity="0.15"/>
<path d="M203.84 199.928C201.039 198.533 197.17 200.623 195.198 204.596C193.227 208.57 193.899 212.921 196.7 214.316C199.501 215.711 203.37 213.62 205.342 209.647C207.313 205.674 206.641 201.323 203.84 199.928Z" fill="white" fill-opacity="0.15"/>
<path d="M167.607 181.795C164.393 184.852 163.537 189.167 165.694 191.434C167.851 193.7 172.205 193.06 175.418 190.003C178.632 186.946 179.488 182.631 177.331 180.364C175.174 178.098 170.821 178.738 167.607 181.795Z" fill="white" fill-opacity="0.15"/>
<path d="M189.199 204.228C186.509 202.241 182.045 203.725 179.23 207.541C176.414 211.358 176.313 216.063 179.004 218.05C181.695 220.037 186.159 218.554 188.974 214.737C191.789 210.92 191.89 206.215 189.199 204.228Z" fill="white" fill-opacity="0.15"/>
<path d="M177.392 195.514C174.701 193.527 170.237 195.01 167.422 198.827C164.607 202.644 164.506 207.349 167.197 209.336C169.887 211.323 174.351 209.84 177.166 206.023C179.982 202.206 180.083 197.501 177.392 195.514Z" fill="white" fill-opacity="0.15"/>
<path d="M116.494 190.789C115.596 193.581 113.292 195.693 110.435 196.377C105.358 197.594 95.8427 199.488 91.8424 197.702C91.4693 197.534 91.1458 197.34 90.8759 197.103C87.8222 194.454 86.4053 184.249 85.8434 178.556C85.4755 174.832 87.5808 171.294 91.0501 169.902C94.5582 168.497 99.3725 169.337 104.41 178.622C104.413 178.628 119.51 181.41 116.494 190.789Z" fill="white" fill-opacity="0.15"/>
<path d="M110.035 199.045C107.234 197.65 103.365 199.74 101.393 203.713C99.4219 207.686 100.094 212.038 102.895 213.433C105.696 214.827 109.565 212.737 111.537 208.764C113.508 204.791 112.836 200.439 110.035 199.045Z" fill="white" fill-opacity="0.15"/>
<path d="M73.8021 180.912C70.5885 183.969 69.7319 188.284 71.8889 190.551C74.046 192.817 78.3997 192.177 81.6134 189.12C84.827 186.063 85.6835 181.748 83.5265 179.481C81.3695 177.214 77.0157 177.855 73.8021 180.912Z" fill="white" fill-opacity="0.15"/>
<path d="M95.3945 203.345C92.7037 201.358 88.2401 202.841 85.4248 206.658C82.6095 210.475 82.5085 215.18 85.1993 217.167C87.8901 219.154 92.3537 217.671 95.169 213.854C97.9843 210.037 98.0853 205.332 95.3945 203.345Z" fill="white" fill-opacity="0.15"/>
<path d="M83.5869 194.631C80.8961 192.644 76.4325 194.127 73.6172 197.944C70.8019 201.761 70.7009 206.466 73.3917 208.453C76.0825 210.44 80.5461 208.957 83.3614 205.14C86.1767 201.323 86.2776 196.618 83.5869 194.631Z" fill="white" fill-opacity="0.15"/>
<path d="M150.918 272.132C150.019 274.925 147.715 277.036 144.858 277.72C139.782 278.937 130.266 280.831 126.266 279.045C125.893 278.877 125.569 278.683 125.299 278.446C122.246 275.797 120.829 265.592 120.267 259.899C119.899 256.175 122.004 252.637 125.474 251.245C128.982 249.84 133.796 250.68 138.834 259.965C138.837 259.971 153.933 262.753 150.918 272.132Z" fill="white" fill-opacity="0.15"/>
<path d="M144.458 280.388C141.657 278.993 137.788 281.083 135.817 285.056C133.845 289.03 134.518 293.381 137.319 294.776C140.12 296.171 143.989 294.08 145.96 290.107C147.932 286.134 147.259 281.783 144.458 280.388Z" fill="white" fill-opacity="0.15"/>
<path d="M108.226 262.255C105.012 265.312 104.156 269.627 106.313 271.894C108.47 274.16 112.823 273.52 116.037 270.463C119.251 267.406 120.107 263.091 117.95 260.824C115.793 258.558 111.439 259.198 108.226 262.255Z" fill="white" fill-opacity="0.15"/>
<path d="M129.818 284.688C127.127 282.701 122.664 284.184 119.848 288.001C117.033 291.818 116.932 296.523 119.623 298.51C122.314 300.497 126.777 299.014 129.593 295.197C132.408 291.38 132.509 286.675 129.818 284.688Z" fill="white" fill-opacity="0.15"/>
<path d="M118.01 275.974C115.32 273.987 110.856 275.47 108.041 279.287C105.225 283.104 105.125 287.809 107.815 289.796C110.506 291.783 114.97 290.3 117.785 286.483C120.6 282.666 120.701 277.961 118.01 275.974Z" fill="white" fill-opacity="0.15"/>
<path d="M57.1173 271.243C56.219 274.036 53.9148 276.147 51.0577 276.831C45.9812 278.048 36.4659 279.942 32.4655 278.156C32.0925 277.988 31.769 277.794 31.499 277.557C28.4454 274.908 27.0284 264.703 26.4666 259.01C26.0987 255.286 28.204 251.748 31.6733 250.356C35.1814 248.951 39.9956 249.791 45.0335 259.076C45.0365 259.082 60.1328 261.864 57.1173 271.243Z" fill="white" fill-opacity="0.15"/>
<path d="M50.6578 279.499C47.8567 278.104 43.9879 280.194 42.0165 284.167C40.045 288.14 40.7175 292.492 43.5185 293.887C46.3195 295.281 50.1884 293.191 52.1598 289.218C54.1313 285.245 53.4588 280.893 50.6578 279.499Z" fill="white" fill-opacity="0.15"/>
<path d="M14.4253 261.366C11.2116 264.423 10.3551 268.738 12.5121 271.005C14.6691 273.271 19.0229 272.631 22.2365 269.574C25.4501 266.517 26.3067 262.202 24.1497 259.935C21.9926 257.669 17.6389 258.309 14.4253 261.366Z" fill="white" fill-opacity="0.15"/>
<path d="M36.0176 283.799C33.3269 281.812 28.8633 283.295 26.048 287.112C23.2327 290.929 23.1317 295.634 25.8225 297.621C28.5133 299.608 32.9768 298.125 35.7922 294.308C38.6075 290.491 38.7084 285.786 36.0176 283.799Z" fill="white" fill-opacity="0.15"/>
<path d="M24.21 275.085C21.5192 273.098 17.0557 274.581 14.2404 278.398C11.425 282.215 11.3241 286.92 14.0149 288.907C16.7057 290.894 21.1692 289.411 23.9845 285.594C26.7999 281.777 26.9008 277.072 24.21 275.085Z" fill="white" fill-opacity="0.15"/>
<path d="M91.5408 352.586C90.6426 355.379 88.3384 357.49 85.4813 358.174C80.4048 359.391 70.8895 361.285 66.8891 359.499C66.5161 359.331 66.1925 359.137 65.9226 358.9C62.8689 356.251 61.452 346.046 60.8901 340.353C60.5223 336.629 62.6276 333.091 66.0968 331.699C69.605 330.294 74.4192 331.134 79.4571 340.419C79.4601 340.425 94.5564 343.207 91.5408 352.586Z" fill="white" fill-opacity="0.15"/>
<path d="M85.0813 360.842C82.2803 359.447 78.4115 361.537 76.4401 365.51C74.4686 369.484 75.1411 373.835 77.9421 375.23C80.7431 376.625 84.612 374.535 86.5834 370.561C88.5548 366.588 87.8823 362.237 85.0813 360.842Z" fill="white" fill-opacity="0.15"/>
<path d="M48.8488 342.709C45.6352 345.766 44.7787 350.081 46.9357 352.348C49.0927 354.615 53.4465 353.974 56.6601 350.917C59.8737 347.86 60.7303 343.545 58.5733 341.278C56.4162 339.012 52.0625 339.652 48.8488 342.709Z" fill="white" fill-opacity="0.15"/>
<path d="M70.4412 365.142C67.7504 363.155 63.2869 364.639 60.4716 368.456C57.6562 372.272 57.5553 376.977 60.2461 378.964C62.9369 380.951 67.4004 379.468 70.2157 375.651C73.0311 371.834 73.132 367.129 70.4412 365.142Z" fill="white" fill-opacity="0.15"/>
<path d="M58.6336 356.428C55.9428 354.441 51.4793 355.924 48.6639 359.741C45.8486 363.558 45.7477 368.263 48.4385 370.25C51.1292 372.237 55.5928 370.754 58.4081 366.937C61.2234 363.12 61.3244 358.415 58.6336 356.428Z" fill="white" fill-opacity="0.15"/>
</svg>
