<svg width="281" height="391" viewBox="0 0 281 391" fill="none" xmlns="http://www.w3.org/2000/svg">
<path d="M44.3127 360.26C45.2219 357.471 47.5343 355.368 50.394 354.695C55.4754 353.497 64.998 351.64 68.9914 353.441C69.3638 353.61 69.6866 353.805 69.9556 354.043C72.9989 356.704 74.376 366.914 74.9157 372.61C75.2691 376.335 73.1499 379.865 69.6753 381.244C66.1616 382.635 61.3507 381.777 56.3491 372.473C56.346 372.467 41.2606 369.628 44.3127 360.26Z" fill="white" fill-opacity="0.15"/>
<path d="M50.8037 352.028C53.5992 353.434 57.4761 351.358 59.463 347.393C61.4499 343.427 60.7944 339.073 57.9989 337.667C55.2034 336.262 51.3265 338.338 49.3396 342.303C47.3527 346.269 48.0082 350.623 50.8037 352.028Z" fill="white" fill-opacity="0.15"/>
<path d="M86.9662 370.3C90.1917 367.255 91.0651 362.943 88.9169 360.668C86.7687 358.394 82.4125 359.018 79.187 362.062C75.9615 365.107 75.0881 369.419 77.2363 371.693C79.3844 373.968 83.7407 373.344 86.9662 370.3Z" fill="white" fill-opacity="0.15"/>
<path d="M65.4602 347.785C68.1432 349.782 72.6125 348.315 75.4426 344.509C78.2728 340.703 78.3921 335.998 75.7091 334.001C73.0261 332.004 68.5568 333.471 65.7267 337.277C62.8965 341.083 62.7772 345.787 65.4602 347.785Z" fill="white" fill-opacity="0.15"/>
<path d="M77.2342 356.544C79.9172 358.541 84.3865 357.075 87.2166 353.269C90.0468 349.463 90.1661 344.758 87.4831 342.761C84.8001 340.764 80.3308 342.23 77.5007 346.036C74.6705 349.842 74.5512 354.547 77.2342 356.544Z" fill="white" fill-opacity="0.15"/>
<path d="M10.2027 278.785C11.1119 275.996 13.4243 273.893 16.284 273.22C21.3653 272.022 30.888 270.165 34.8814 271.966C35.2538 272.135 35.5766 272.33 35.8456 272.568C38.8889 275.229 40.266 285.439 40.8057 291.135C41.1591 294.86 39.0399 298.39 35.5652 299.769C32.0516 301.16 27.2407 300.302 22.239 290.998C22.236 290.992 7.15055 288.153 10.2027 278.785Z" fill="white" fill-opacity="0.15"/>
<path d="M16.6937 270.553C19.4892 271.959 23.3661 269.883 25.3529 265.917C27.3398 261.952 26.6843 257.598 23.8889 256.192C21.0934 254.787 17.2165 256.862 15.2296 260.828C13.2427 264.794 13.8982 269.148 16.6937 270.553Z" fill="white" fill-opacity="0.15"/>
<path d="M52.8562 288.824C56.0817 285.78 56.955 281.468 54.8069 279.193C52.6587 276.919 48.3025 277.543 45.077 280.587C41.8514 283.632 40.9781 287.944 43.1263 290.218C45.2744 292.493 49.6307 291.869 52.8562 288.824Z" fill="white" fill-opacity="0.15"/>
<path d="M31.3502 266.309C34.0332 268.307 38.5025 266.84 41.3326 263.034C44.1628 259.228 44.2821 254.523 41.5991 252.526C38.9161 250.529 34.4468 251.995 31.6167 255.802C28.7865 259.608 28.6672 264.312 31.3502 266.309Z" fill="white" fill-opacity="0.15"/>
<path d="M43.1242 275.069C45.8072 277.066 50.2765 275.6 53.1066 271.794C55.9368 267.987 56.0561 263.283 53.3731 261.286C50.6901 259.288 46.2208 260.755 43.3907 264.561C40.5605 268.367 40.4412 273.072 43.1242 275.069Z" fill="white" fill-opacity="0.15"/>
<path d="M104.003 280.029C104.913 277.24 107.225 275.137 110.085 274.464C115.166 273.266 124.689 271.408 128.682 273.21C129.055 273.379 129.377 273.574 129.646 273.812C132.69 276.473 134.067 286.683 134.606 292.378C134.96 296.104 132.841 299.633 129.366 301.013C125.852 302.404 121.041 301.546 116.04 292.242C116.037 292.236 100.951 289.396 104.003 280.029Z" fill="white" fill-opacity="0.15"/>
<path d="M110.494 271.797C113.29 273.202 117.167 271.127 119.154 267.161C121.141 263.196 120.485 258.842 117.69 257.436C114.894 256.031 111.017 258.106 109.03 262.072C107.043 266.038 107.699 270.392 110.494 271.797Z" fill="white" fill-opacity="0.15"/>
<path d="M146.657 290.068C149.882 287.024 150.756 282.712 148.608 280.437C146.459 278.162 142.103 278.786 138.878 281.831C135.652 284.875 134.779 289.188 136.927 291.462C139.075 293.737 143.431 293.113 146.657 290.068Z" fill="white" fill-opacity="0.15"/>
<path d="M125.151 267.553C127.834 269.551 132.303 268.084 135.133 264.278C137.964 260.472 138.083 255.767 135.4 253.77C132.717 251.773 128.248 253.239 125.417 257.045C122.587 260.852 122.468 265.556 125.151 267.553Z" fill="white" fill-opacity="0.15"/>
<path d="M136.925 276.313C139.608 278.31 144.077 276.844 146.907 273.038C149.738 269.231 149.857 264.527 147.174 262.53C144.491 260.532 140.022 261.999 137.191 265.805C134.361 269.611 134.242 274.316 136.925 276.313Z" fill="white" fill-opacity="0.15"/>
<path d="M69.8934 198.553C70.8026 195.764 73.115 193.662 75.9747 192.989C81.056 191.791 90.5787 189.933 94.5721 191.734C94.9445 191.903 95.2673 192.099 95.5363 192.336C98.5796 194.997 99.9567 205.208 100.496 210.903C100.85 214.628 98.7306 218.158 95.2559 219.537C91.7423 220.929 86.9314 220.071 81.9297 210.766C81.9267 210.76 66.8412 207.921 69.8934 198.553Z" fill="white" fill-opacity="0.15"/>
<path d="M76.3844 190.322C79.1798 191.727 83.0567 189.652 85.0436 185.686C87.0305 181.72 86.375 177.366 83.5795 175.961C80.7841 174.556 76.9072 176.631 74.9203 180.597C72.9334 184.562 73.5889 188.916 76.3844 190.322Z" fill="white" fill-opacity="0.15"/>
<path d="M112.547 208.593C115.772 205.549 116.646 201.236 114.498 198.962C112.349 196.687 107.993 197.311 104.768 200.356C101.542 203.4 100.669 207.712 102.817 209.987C104.965 212.262 109.321 211.638 112.547 208.593Z" fill="white" fill-opacity="0.15"/>
<path d="M91.0409 186.078C93.7239 188.075 98.1931 186.609 101.023 182.803C103.853 178.997 103.973 174.292 101.29 172.295C98.6068 170.298 94.1375 171.764 91.3073 175.57C88.4772 179.376 88.3579 184.081 91.0409 186.078Z" fill="white" fill-opacity="0.15"/>
<path d="M102.815 194.838C105.498 196.835 109.967 195.368 112.797 191.562C115.627 187.756 115.747 183.051 113.064 181.054C110.381 179.057 105.911 180.523 103.081 184.33C100.251 188.136 100.132 192.84 102.815 194.838Z" fill="white" fill-opacity="0.15"/>
<path d="M163.694 199.798C164.603 197.009 166.916 194.906 169.776 194.233C174.857 193.035 184.38 191.178 188.373 192.979C188.745 193.148 189.068 193.344 189.337 193.581C192.38 196.242 193.758 206.452 194.297 212.148C194.651 215.873 192.531 219.403 189.057 220.782C185.543 222.173 180.732 221.315 175.731 212.011C175.728 212.005 160.642 209.166 163.694 199.798Z" fill="white" fill-opacity="0.15"/>
<path d="M170.185 191.566C172.981 192.972 176.858 190.896 178.844 186.931C180.831 182.965 180.176 178.611 177.38 177.206C174.585 175.8 170.708 177.876 168.721 181.841C166.734 185.807 167.39 190.161 170.185 191.566Z" fill="white" fill-opacity="0.15"/>
<path d="M206.348 209.838C209.573 206.793 210.447 202.481 208.298 200.206C206.15 197.932 201.794 198.556 198.568 201.6C195.343 204.645 194.47 208.957 196.618 211.232C198.766 213.506 203.122 212.882 206.348 209.838Z" fill="white" fill-opacity="0.15"/>
<path d="M184.842 187.323C187.525 189.32 191.994 187.853 194.824 184.047C197.654 180.241 197.774 175.537 195.091 173.539C192.408 171.542 187.938 173.009 185.108 176.815C182.278 180.621 182.159 185.325 184.842 187.323Z" fill="white" fill-opacity="0.15"/>
<path d="M196.616 196.082C199.299 198.079 203.768 196.613 206.598 192.807C209.428 189.001 209.548 184.296 206.865 182.299C204.182 180.302 199.712 181.768 196.882 185.574C194.052 189.38 193.933 194.085 196.616 196.082Z" fill="white" fill-opacity="0.15"/>
<path d="M129.584 118.323C130.493 115.534 132.806 113.431 135.665 112.758C140.747 111.56 150.269 109.702 154.263 111.504C154.635 111.673 154.958 111.868 155.227 112.106C158.27 114.767 159.647 124.977 160.187 130.672C160.541 134.398 158.421 137.927 154.947 139.307C151.433 140.698 146.622 139.84 141.62 130.536C141.617 130.53 126.532 127.69 129.584 118.323Z" fill="white" fill-opacity="0.15"/>
<path d="M136.075 110.091C138.871 111.496 142.747 109.421 144.734 105.455C146.721 101.49 146.066 97.1356 143.27 95.7302C140.475 94.3248 136.598 96.4003 134.611 100.366C132.624 104.332 133.28 108.686 136.075 110.091Z" fill="white" fill-opacity="0.15"/>
<path d="M172.238 128.362C175.463 125.318 176.337 121.006 174.188 118.731C172.04 116.456 167.684 117.08 164.458 120.125C161.233 123.169 160.36 127.481 162.508 129.756C164.656 132.031 169.012 131.407 172.238 128.362Z" fill="white" fill-opacity="0.15"/>
<path d="M150.732 105.847C153.415 107.845 157.884 106.378 160.714 102.572C163.544 98.7658 163.664 94.0612 160.981 92.064C158.298 90.0668 153.828 91.5332 150.998 95.3394C148.168 99.1456 148.049 103.85 150.732 105.847Z" fill="white" fill-opacity="0.15"/>
<path d="M162.506 114.607C165.189 116.604 169.658 115.138 172.488 111.331C175.318 107.525 175.438 102.821 172.755 100.824C170.072 98.8263 165.602 100.293 162.772 104.099C159.942 107.905 159.823 112.61 162.506 114.607Z" fill="white" fill-opacity="0.15"/>
<path d="M223.38 119.573C224.29 116.784 226.602 114.681 229.462 114.008C234.543 112.81 244.066 110.953 248.059 112.754C248.431 112.923 248.754 113.119 249.023 113.356C252.067 116.017 253.444 126.227 253.983 131.923C254.337 135.648 252.218 139.178 248.743 140.557C245.229 141.948 240.418 141.09 235.417 131.786C235.414 131.78 220.328 128.941 223.38 119.573Z" fill="white" fill-opacity="0.15"/>
<path d="M229.871 111.341C232.667 112.747 236.544 110.671 238.531 106.706C240.518 102.74 239.862 98.3861 237.067 96.9807C234.271 95.5753 230.394 97.6508 228.407 101.616C226.42 105.582 227.076 109.936 229.871 111.341Z" fill="white" fill-opacity="0.15"/>
<path d="M266.034 129.613C269.259 126.568 270.133 122.256 267.985 119.982C265.836 117.707 261.48 118.331 258.255 121.375C255.029 124.42 254.156 128.732 256.304 131.007C258.452 133.281 262.808 132.657 266.034 129.613Z" fill="white" fill-opacity="0.15"/>
<path d="M244.528 107.098C247.211 109.095 251.68 107.629 254.51 103.822C257.34 100.016 257.46 95.3117 254.777 93.3145C252.094 91.3173 247.625 92.7837 244.794 96.5899C241.964 100.396 241.845 105.101 244.528 107.098Z" fill="white" fill-opacity="0.15"/>
<path d="M256.302 115.857C258.985 117.855 263.454 116.388 266.284 112.582C269.114 108.776 269.234 104.071 266.551 102.074C263.868 100.077 259.398 101.543 256.568 105.349C253.738 109.156 253.619 113.86 256.302 115.857Z" fill="white" fill-opacity="0.15"/>
<path d="M189.27 38.0975C190.179 35.3084 192.492 33.2058 195.352 32.5328C200.433 31.3349 209.956 29.4773 213.949 31.2786C214.321 31.4476 214.644 31.6431 214.913 31.8807C217.956 34.5416 219.334 44.7517 219.873 50.4473C220.227 54.1725 218.107 57.7023 214.633 59.0815C211.119 60.4727 206.308 59.6149 201.307 50.3105C201.304 50.3045 186.218 47.4652 189.27 38.0975Z" fill="white" fill-opacity="0.15"/>
<path d="M195.761 29.8662C198.557 31.2715 202.434 29.1961 204.42 25.2305C206.407 21.2648 205.752 16.9108 202.956 15.5054C200.161 14.1 196.284 16.1755 194.297 20.1411C192.31 24.1067 192.966 28.4608 195.761 29.8662Z" fill="white" fill-opacity="0.15"/>
<path d="M231.924 48.1377C235.149 45.0932 236.023 40.7812 233.874 38.5065C231.726 36.2318 227.37 36.8558 224.145 39.9003C220.919 42.9448 220.046 47.2569 222.194 49.5316C224.342 51.8063 228.698 51.1822 231.924 48.1377Z" fill="white" fill-opacity="0.15"/>
<path d="M210.418 25.6222C213.101 27.6194 217.57 26.153 220.4 22.3468C223.23 18.5407 223.35 13.8361 220.667 11.8389C217.984 9.84172 213.514 11.3082 210.684 15.1143C207.854 18.9205 207.735 23.625 210.418 25.6222Z" fill="white" fill-opacity="0.15"/>
<path d="M222.192 34.3819C224.875 36.3791 229.344 34.9126 232.174 31.1065C235.004 27.3003 235.124 22.5958 232.441 20.5986C229.758 18.6014 225.288 20.0678 222.458 23.8739C219.628 27.6801 219.509 32.3847 222.192 34.3819Z" fill="white" fill-opacity="0.15"/>
</svg>
